<svg id="mask-svg" xmlns="http://www.w3.org/2000/svg" viewBox="155 450 720 860">
			<defs>
				<style>.cls-1,.cls-16,.cls-17,.cls-6,.cls-7{fill:none;}.cls-2{clip-path:url(#clip-path);}.cls-3,.cls-8{fill:#ffa700;}.cls-4{fill:#bba800;}.cls-5{fill:#008746;}.cls-6{stroke:#0f9623;stroke-width:421px;}.cls-10,.cls-11,.cls-12,.cls-13,.cls-14,.cls-16,.cls-17,.cls-19,.cls-6,.cls-7,.cls-8,.cls-9{stroke-miterlimit:10;}.cls-14,.cls-7{stroke:#008746;}.cls-7{stroke-width:115px;}.cls-10,.cls-11,.cls-12,.cls-16,.cls-19,.cls-8,.cls-9{stroke:#000;}.cls-10,.cls-11,.cls-12,.cls-8,.cls-9{stroke-width:0.5px;}.cls-9{fill:#ffeccc;}.cls-10,.cls-13,.cls-15,.cls-19{fill:#fff;}.cls-11{fill:#75a200;}.cls-12{fill:#d38200;}.cls-13{stroke:#fff;}.cls-14{stroke-width:4px;}.cls-16{stroke-width:0.25px;}.cls-17{stroke:#bba800;stroke-width:54px;}.cls-18{fill:#007561;}</style>
				<clipPath id="clip-path" transform="translate(326.88 450.43)">
					<rect id="hide" class="cls-1" y="-0.99" width="551.32" height="866.67"/>
				</clipPath>
			</defs>
			<g class="cls-2">
				<g id="svg">
					<g class="background">
						<path class="cls-3" d="M551.32,862.68s-25,79.88-275.66,79.62C11,942,0,859.58,0,859.58V-1H551.32Z" transform="translate(326.88 450.43)"/>
					</g>
					<circle id="top-right-big" class="cls-4" cx="849.76" cy="697.21" r="110.07"/>
					<circle id="top-right-small" class="cls-5" cx="849.76" cy="697.21" r="42.64"/>
					<path id="big-wave" class="cls-6" d="M1018.63,1068.26S723.06,432.84,350.43,459.83C-143.51,495.6-116.12-241-116.11-239.93" transform="translate(326.88 450.43)"/>
					<path id="medium-wave" class="cls-7" d="M-54.09,498.34s221.83,246.89,373,137C446,543,620,763.11,620,763.11" transform="translate(326.88 450.43)"/>
					<g class="ipkins">	
						<path class="cls-8" d="M391.82,669.28c-6-3.92-12-7.74-17.92-11.82-3.32-2.3-6.34-5-9.39-7.49.81,8.55,1.62,17.16,2.46,25.77.19,2,.52,4,.68,6.06a15.28,15.28,0,0,1-.19,2.69c-.24,2.37-.54,4.74-.71,7.11-.09,1.39,0,2.78.06,4.18h0c-8.73-.76,73.38,6,73.41,1.05C440.24,692.87,401.35,675.75,391.82,669.28Z" transform="translate(326.88 450.43)"/>
						<path d="M291.53,680.1l8.24,15.25s-15.2,2.35-16.19,7.47l-4.76,5.3-.09,14.59-12.53-.08-12.53-.08.09-14.59-4.68-5.36c-.93-5.13-16.1-7.67-16.1-7.67l8.44-15.14.52-1.32s17.51,3.62,23.83,3.43,20.24-1.4,25.36-3.11Z" transform="translate(326.88 450.43)"/>
						<path class="cls-9" d="M175.79,603.18l-2.22,22.39,0,3.27s8.44,14.22,13.23,16.83c0,0,6,7.12,19.53,14.81s37.34,18.8,37.34,18.8,15.85,5.55,45.21.49c0,0,25.54-11,33.37-15.72s32-21,37.46-33.38l-.29-28.16-47.18,52.67s-10,17-17.64,19.7-25.42,3.55-28.3,1.65-19.23,3.81-30.09-3.19c0,0-11.52-10.94-14.74-17.63S175.79,603.18,175.79,603.18Z" transform="translate(326.88 450.43)"/>
						<path class="cls-8" d="M140.47,667.69c6-3.85,12.14-7.59,18.07-11.6,3.35-2.26,6.41-5,9.49-7.36-.92,8.53-1.84,17.13-2.79,25.73-.22,2-.57,4-.76,6a15.19,15.19,0,0,0,.16,2.69c.21,2.38.48,4.75.62,7.13.08,1.38-.07,2.78-.11,4.17-8.25-.06,8.34,0,0,0,8.73-.65-73.45,5-73.42.12C91.76,690.66,130.86,674,140.47,667.69Z" transform="translate(326.88 450.43)"/>
						<path class="cls-10" d="M165.35,694.5c-.63-3.58-1.8-7.17-1.76-10.74.07-6.15.83-12.29,1.43-18.42.93-9.46,3.58-18.7,3.5-28.31,0-4.53.34-9.08.66-13.61.25-3.51,1.71-5.28,5.1-6.31-.25,2.91-.48,5.69-.71,8.46l-.46,0-1.31-3.21-.35.09a34.6,34.6,0,0,0,1,3.82c3,7.78,8.41,13.78,14.31,19.36,10.73,10.16,23.35,17.56,36.4,24.22,6.81,3.48,13.91,6.4,20.47,9.39-2.59,4.58-5.3,9.36-8,14.15-.1.18,8.8,3.27,13,8.06,1.86,2.15,5.12,6.47,5.12,6.47s0,14.37-.09,14.59C230.38,722.4,188.64,694.65,165.35,694.5Z" transform="translate(326.88 450.43)"/>
						<path class="cls-10" d="M297.63,695.34a61.75,61.75,0,0,0-8.77-15.57c7-3.08,14-5.95,20.78-9.17a166.18,166.18,0,0,0,31-18.81c8.3-6.47,15.91-13.75,20.26-23.68a13.1,13.1,0,0,0,1-4.53c-.46,1.06-.91,2.11-1.37,3.16l-.45,0c-.23-2.76-.46-5.51-.7-8.34,3.33.72,4.91,2.75,5,6.44.45,13.35,1,26.67,3.31,39.88,1,5.87,1.19,11.91,1.6,17.88a31,31,0,0,1-2.23,13.2c-23-.15-65.44,27.07-88.4,26.93-.09,0,.09-14.59.09-14.59s3.62-4.07,5.09-6.21C287.44,696.8,297.55,695.14,297.63,695.34Z" transform="translate(326.88 450.43)"/>
						<path class="cls-11" d="M268.34,454.29c33.28,2.59,127.23-17.87,127.23-17.87-2.6,4.72.35,19.35.35,19.35,1.68,33.4-13.41,61.76-13.41,61.76l-.62,56.15s1.84,9.5-4.63,11.74S311.55,656,311.55,656s-9.21,17-21,20.74-24.27-.16-24.27-.16-12.54,3.72-24.28-.15-20.73-21-20.73-21-58.38-69-64.81-71.36S152,572.23,152,572.23l.09-56.16s-14.73-28.55-12.62-61.93c0,0,3.13-14.58.59-19.34,0,0,93.68,21.65,127,19.49Z" transform="translate(326.88 450.43)"/>
						<g id="hat">
							<path class="cls-12" d="M396.4,317.88c-28.76-25.48-222.17-25.12-251.91-1.6,0,0,79.35,16.25,122.84,14.44S365,326.58,377,321Z" transform="translate(326.88 450.43)"/>
							<path class="cls-8" d="M269.59,453.92c41.49,2,134.8-18.36,134.8-18.36s87.52-9.69,85.34-24.5-21.5-19.49-30.61-20.11-54.41-6-54.41-6l-5.62-40.44-2.68-26.77s-75.57,13.18-126,12.86S144.5,316.1,144.5,316.1l-3,26.73-6.14,40.37S90,388,80.86,388.55,52.37,393.49,50,408.27s85,25.59,85,25.59S228.07,455.36,269.59,453.92Z" transform="translate(326.88 450.43)"/>
							<path d="M402.52,369.14s.64.33,2.51,4.7.81,10.37.81,10.37c.4.41-1.13.7-1.13.7s-57.1,23.92-138.77,23.38c-55-.36-130.6-25.09-130.6-25.09s-7.11-6.37,2.53-16.63C137.87,366.57,283.82,415.33,402.52,369.14Z" transform="translate(326.88 450.43)"/>
						</g>
						<circle class="cls-13" cx="571.4" cy="1144.74" r="0.97"/>
						<circle class="cls-13" cx="584.91" cy="1146.69" r="2.78"/>
						<circle class="cls-13" cx="578.46" cy="1139.95" r="0.58"/>
						<circle class="cls-13" cx="614.08" cy="1144.02" r="1.08"/>
						<circle class="cls-13" cx="597.9" cy="1149.65" r="1.93"/>
						<circle class="cls-13" cx="601.7" cy="1142.71" r="2.38"/>
						<circle class="cls-13" cx="592.29" cy="1145.84" r="0.97"/>
						<circle class="cls-13" cx="608" cy="1142.35" r="0.54"/>
						<circle class="cls-13" cx="593.97" cy="1140.94" r="0.97"/>
						<circle class="cls-13" cx="611.36" cy="1135.84" r="2.78"/>
						<circle class="cls-13" cx="577.25" cy="1146.65" r="0.58"/>
						<circle class="cls-13" cx="594.97" cy="1136.16" r="1.08"/>
						<circle class="cls-13" cx="572.43" cy="1136.02" r="1.93"/>
						<circle class="cls-13" cx="584.97" cy="1137.18" r="2.38"/>
						<circle class="cls-13" cx="602.31" cy="1136.72" r="0.97"/>
						<circle class="cls-13" cx="606.22" cy="1147.77" r="0.54"/>
						<g class="mouth">
							<path class="cls-14" d="M270.71,566.54a123.34,123.34,0,0,0-27.42-3.68c-14-.09-29.32,2.71-36.2,2.82a76.11,76.11,0,0,1-14.79-1.62s1.48,6.57,3.3,9.33,13.73,24.36,15.4,26.51,7.68,17,21.68,24,37.71,6.65,37.71,6.65,29.63-.58,37.5-6.18,16.32-13.18,22.65-24.89,14.67-26,14.67-26l4-8.38a76.57,76.57,0,0,1-14.82,1.44c-6.86-.2-22.11-3.2-36.16-3.29a123.53,123.53,0,0,0-27.45,3.34Z" transform="translate(326.88 450.43)"/>
						</g>
						<path d="M164,469s21.61,21.45,37.33,24.92,33.93,5.67,40,3.24,13-8.64,13-8.64.59-3.81-5.26-9.15-6.94-.48-20.5-7.32A105,105,0,0,1,206,456.71s-18.08-6.28-24.83-3.48-12.69,3.59-14.93,9.68Z" transform="translate(326.88 450.43)"/>
						<g id="teeth">
							<path class="cls-15" d="M245.27,568c7.44.13,13.86.31,20.12,1.95a5.5,5.5,0,0,1,4.4,5.74c-.16,6.9-.32,13.79-.61,20.68-.11,2.88-.25,2.89-3.16,3a96.18,96.18,0,0,1-28.86-3,3.21,3.21,0,0,1-2.78-2.83c-.43-3-1-6-1.18-9.07-.26-4.31-.28-8.63-.3-12.95,0-2.66.36-3,3-3.11C239.34,568.2,242.82,568.08,245.27,568Z" transform="translate(326.88 450.43)"/><path class="cls-15" d="M294.83,568.29c2.65.15,6.23.43,9.83.52,1.87,0,2.38,1.05,2.35,2.61-.1,4.31-.11,8.63-.39,12.93-.2,3.1-.75,6.18-1.2,9.25a3.58,3.58,0,0,1-3.1,3.19,98.83,98.83,0,0,1-29.43,2.6c-1.63-.1-2.38-.64-2.4-2.3-.09-7.37-.28-14.74-.31-22.11a5.24,5.24,0,0,1,4.24-4.94C280.81,568.4,287.35,568.35,294.83,568.29Z" transform="translate(326.88 450.43)"/>
							<path class="cls-15" d="M294.09,600c.15,5.86.05,11.71-2.58,17.19a12.66,12.66,0,0,1-18.87,4.47,5.42,5.42,0,0,1-2.45-4.71c.13-4.3.08-8.61.11-12.91h-1c0,4.17-.16,8.34,0,12.51a5.81,5.81,0,0,1-3.29,5.53c-5.55,3.22-15.21,3.13-18.71-6.59-1.84-5.13-1.93-10.43-1.7-15.79A280,280,0,0,0,294.09,600Z" transform="translate(326.88 450.43)"/>
							<path class="cls-15" d="M328.84,571.07c-.31,5.41-.67,10.72-2.45,15.81-1.14,3.25-3,5.61-6.68,6.27-4.06.74-8.07,1.77-12.11,2.6-1.77.36-1.8.1-1.52-1.6.6-3.6,1.16-7.21,1.46-10.84s.28-7.55.44-11.32c.08-2.08.87-2.74,2.92-2.56Z" transform="translate(326.88 450.43)"/>
							<path class="cls-15" d="M211.29,570.23c4.58-.3,9.07-.59,13.55-.9,1.43-.1,2.86-.28,4.3-.41,2-.18,2.81.51,2.87,2.62.1,3.24,0,6.49.23,9.71.35,4.35.94,8.68,1.51,13,.12,1-.17,1.33-1,1.14-5.18-1.23-10.42-2.3-15.48-3.92-1.41-.46-2.55-2.48-3.32-4C212.1,583.67,210.9,575,211.29,570.23Z" transform="translate(326.88 450.43)"/>
							<path class="cls-15" d="M295.11,599.56l19.64-3.93c-.29,8.07-.27,15.93-6.64,21.82-4.68,4.33-9.89,4-14.23-.67a2,2,0,0,1-.59-1.49c1.6-4.94,1.71-10,1.68-15.12A4,4,0,0,1,295.11,599.56Z" transform="translate(326.88 450.43)"/>
							<path class="cls-15" d="M244.44,599.21c.2,3.71.33,7.12.6,10.51a17.18,17.18,0,0,0,.85,4.22,2.4,2.4,0,0,1-.79,3c-4.73,4.35-9.47,4.29-14.15-.22-3.57-3.45-4.94-7.88-5.54-12.59-.37-2.89-.42-5.81-.64-9.07Z" transform="translate(326.88 450.43)"/>
							<path class="cls-15" d="M210.2,570.27c.57,7,.62,13.92,4.2,20.19-4.26-1.86-8.87-3.09-10.67-8.29A40.41,40.41,0,0,1,201,569.3Z" transform="translate(326.88 450.43)"/>
							<path class="cls-15" d="M325,591.39c3.9-6.48,4.13-13.4,4.74-20.35l9.25-.86c-.36,5.92-1.5,11.68-5.1,16.4C332,589.16,328.48,590.08,325,591.39Z" transform="translate(326.88 450.43)"/>
							<path class="cls-15" d="M325.33,593c-.45,4.37-1.14,8.72-3.44,12.63-1.88,3.18-4.6,4.64-7.69,4.32.44-3.59,1-7.17,1.29-10.78s.2-3.64,3.68-4.61c1.95-.55,3.9-1.13,5.86-1.69C325.07,592.9,325.13,593,325.33,593Z" transform="translate(326.88 450.43)"/>
							<path class="cls-15" d="M223.73,594.9c.51,4.9,1,9.64,1.54,14.62a6.75,6.75,0,0,1-6.39-2.9,33.21,33.21,0,0,1-3.39-7.42,51.79,51.79,0,0,1-1.29-7.12Z" transform="translate(326.88 450.43)"/>
							<path class="cls-15" d="M214.72,600.51c-1.94-3.39-5-6.24-5.73-10.89,1.59.72,2.78,1.2,3.9,1.81a1.78,1.78,0,0,1,.61,1.15C213.93,595.22,214.32,597.87,214.72,600.51Z" transform="translate(326.88 450.43)"/>
							<path class="cls-15" d="M330.69,590.4c-.54,4.61-3.84,7.32-5.78,10.77.46-2.83.86-5.66,1.43-8.46.1-.44,1-.77,1.52-1.06C328.66,591.24,329.49,590.92,330.69,590.4Z" transform="translate(326.88 450.43)"/>
							<path class="cls-15" d="M200.59,577c-1.29-2.86-2.57-5.73-4-8.91,3.39.61,3.38.61,3.64,3.27.09,1,.23,1.9.37,2.84s.3,1.75.45,2.62Z" transform="translate(326.88 450.43)"/>
							<path class="cls-15" d="M339.45,577.91l4.11-8.86c-3.4.56-3.39.57-3.69,3.23-.1,1-.25,1.89-.41,2.83s-.32,1.74-.48,2.61Z" transform="translate(326.88 450.43)"/>
						</g>
						<path class="cls-16" d="M170.16,505.59s8-6.43,16.23-6.91a56.92,56.92,0,0,1,17.71,1.75c2.52.73,15.15,5.54,20.22,8.31" transform="translate(326.88 450.43)"/>
						<path class="cls-16" d="M369.88,506.85s-7.93-6.52-16.14-7.11A56.91,56.91,0,0,0,336,501.27c-2.53.69-15.22,5.34-20.33,8.05" transform="translate(326.88 450.43)"/>
						<path class="cls-16" d="M184,587.68A70.47,70.47,0,0,1,178.21,566c-1-11.6.09-14.41.09-14.41s24.95,2.38,38.9-17.74c0,0,14.34-11,28.3-10.52" transform="translate(326.88 450.43)"/>
						<path class="cls-16" d="M359.12,588.79a70.66,70.66,0,0,0,6.08-21.65c1.11-11.59.09-14.42.09-14.42s-25,2.07-38.67-18.23c0,0-14.2-11.23-28.17-10.87" transform="translate(326.88 450.43)"/>
						<path class="cls-16" d="M159.14,438.75s-10,17.49-1.21,25.6c0,0,4.29,4.47,5.64,4.76s1.6-4.9,1.6-4.9S173.56,453,185,452.74a45,45,0,0,1,19.68,4,65.16,65.16,0,0,0,23.16,15c14.06,5.14,30.46,10.16,33.33,6.19s5-18.75,1.86-23.54" transform="translate(326.88 450.43)"/>
						<path d="M377.94,469.53S356.07,490.7,340.3,494s-34,5.24-40.05,2.73-12.84-8.8-12.84-8.8-.55-3.82,5.37-9.08,7-.4,20.59-7.06a105,105,0,0,0,22.74-15.05s18.15-6,24.87-3.16,12.64,3.75,14.8,9.86Z" transform="translate(326.88 450.43)"/>
						<path class="cls-16" d="M382.78,440.19s9.75,17.61.88,25.61c0,0-4.35,4.41-5.7,4.69s-1.54-4.92-1.54-4.92-8.25-11.36-19.7-11.72A44.88,44.88,0,0,0,337,457.64a65.31,65.31,0,0,1-23.36,14.72c-14.11,5-30.58,9.76-33.4,5.76s-4.72-18.81-1.56-23.56" transform="translate(326.88 450.43)"/>
						<path class="cls-16" d="M253.41,500.07s10.74,11.45,10.39,20.84-.08,14.78-.08,14.78-6.85,8.22-3.77,13.94" transform="translate(326.88 450.43)"/>
						<path class="cls-16" d="M289.76,500.3S278.88,511.61,279.1,521s-.1,14.79-.1,14.79,6.74,8.31,3.6,14" transform="translate(326.88 450.43)"/>
						<path class="cls-16" d="M248.47,538.67s-5.86,3.45-4.69,9.64,7.78,7.81,7.78,7.81" transform="translate(326.88 450.43)"/>
						<path class="cls-16" d="M293.39,539.29s5.81,3.52,4.56,9.7-7.88,7.71-7.88,7.71" transform="translate(326.88 450.43)"/>
						<path d="M270.81,560.25a8.17,8.17,0,0,0,7.54-4.06s5.49-5.06,9.5-5.15,6.07.58,1.17,2.07-6.15,2.19-8.7,3.85-5.6,3.71-5.6,3.71a15.39,15.39,0,0,1-5.5.54c-2.94-.28-6-3.41-7.66-4.84s-7.23-3.67-9.36-3.9-4.45-1.72-2-1.69a47.84,47.84,0,0,1,6.3.74s4,2.09,5,3.14,5.45,4.73,5.45,4.73Z" transform="translate(326.88 450.43)"/>
						<path class="cls-16" d="M315,632.05s-15.46,13.85-18.59,14.4l2,2.61a12.59,12.59,0,0,0-8.88-5.75s-11.45-4.15-22.4,2C256.24,639,244.74,643,244.74,643a12.55,12.55,0,0,0-9,5.63l2.54-3c-3.13-.59-18.41-14.63-18.41-14.63" transform="translate(326.88 450.43)"/>
						<path class="cls-16" d="M265.86,654.94s4.08,8.28-.09,15.37" transform="translate(326.88 450.43)"/>
						<path class="cls-16" d="M269.89,655s-4.17,8.22-.09,15.36" transform="translate(326.88 450.43)"/>
						<g id="paupiere">
							<path class="cls-19" d="M326,492.58s-11.39.76-24.5-6.8c0,0-1.26-.51,0-1.64s11.84-7.83,23.7-8.44,18.1-.31,24.51,2.26c0,0-.11.83-2.14,4.65S337.39,492.52,326,492.58Z" transform="translate(326.88 450.43)"/>
							<path class="cls-19" d="M212.6,491.62s11.39.77,24.5-6.79c0,0,1.26-.52,0-1.64s-11.84-7.83-23.7-8.44-18.1-.32-24.51,2.26c0,0,.11.83,2.14,4.64S201.21,491.56,212.6,491.62Z" transform="translate(326.88 450.43)"/>
						</g>
						<g id="eyes">
							<g id="pupille-right">
								<ellipse cx="649.98" cy="931.25" rx="11.22" ry="8.44"/>
								<path class="cls-15" d="M315.39,485a4.57,4.57,0,0,1-.28-1.84,1.38,1.38,0,0,1,1.42-.68,9.54,9.54,0,0,1,3.17,1.2,3,3,0,0,1,1.05,1.91c0,.48-.56,1-1.06,1.16C318.44,487.14,316.64,486.44,315.39,485Z" transform="translate(326.88 450.43)"/>
							</g>
							<g id="pupille-left">
								<ellipse cx="540.16" cy="929.58" rx="11.22" ry="8.44"/>
								<path class="cls-15" d="M210.34,482.73a6.09,6.09,0,0,1,.55,1.19c.09.41.17,1,0,1.25a1.39,1.39,0,0,1-1.2.21c-.94-.28-1.83-.7-2.74-1.05a2.9,2.9,0,0,1-1.72-3.92,1.23,1.23,0,0,1,.93-.51c.66,0,1.32.21,2,.27C209.71,480.31,210.64,481.23,210.34,482.73Z" transform="translate(326.88 450.43)"/>
							</g>
						</g>
					</g>	
					<path id="small-wave" class="cls-17" d="M-40.42,571.32s221.84,246.89,373,137c127-92.36,301,127.79,301,127.79" transform="translate(326.88 450.43)"/>
					<circle id="bottom-left-big" class="cls-4" cx="356.81" cy="1284.9" r="110.07"/>
					<circle id="bottom-left-small" class="cls-5" cx="356.81" cy="1284.9" r="42.64"/>
					<circle id="top-center-big" class="cls-5" cx="586.7" cy="450.43" r="75.87"/>
					<circle id="top-center-small" class="cls-18" cx="587.7" cy="450.43" r="31.03"/>
					<circle id="bottom-right-big" class="cls-5" cx="862.2" cy="1302.11" r="45.86"/>
					<circle id="bottom-right-small" class="cls-18" cx="862.81" cy="1302.11" r="18.76"/>
				</g>
			</g>
		</svg>